<svg xmlns="http://www.w3.org/2000/svg" xmlns:xlink="http://www.w3.org/1999/xlink" width="500" zoomAndPan="magnify" viewBox="0 0 375 374.999991" height="500" preserveAspectRatio="xMidYMid meet" version="1.0"><defs><clipPath id="id1"><path d="M 94.960938 38 L 309.460938 38 L 309.460938 330.75 L 94.960938 330.75 Z M 94.960938 38 " clip-rule="nonzero"/></clipPath></defs><rect x="-37.5" width="450" fill="#ffffff" y="-37.499999" height="449.999989" fill-opacity="1"/><rect x="-37.5" width="450" fill="#ffffff" y="-37.499999" height="449.999989" fill-opacity="1"/><rect x="-37.5" width="450" fill="#ffffff" y="-37.499999" height="449.999989" fill-opacity="1"/><g clip-path="url(#id1)"><path fill="#7c75a2" d="M 116.671875 330.167969 L 287.808594 330.167969 C 288.519531 330.167969 289.226562 330.132812 289.9375 330.066406 C 290.644531 329.996094 291.347656 329.890625 292.042969 329.75 C 292.742188 329.613281 293.429688 329.441406 294.109375 329.234375 C 294.792969 329.027344 295.460938 328.785156 296.117188 328.515625 C 296.773438 328.242188 297.414062 327.9375 298.042969 327.601562 C 298.671875 327.265625 299.28125 326.898438 299.871094 326.503906 C 300.460938 326.109375 301.03125 325.683594 301.582031 325.230469 C 302.132812 324.78125 302.660156 324.300781 303.160156 323.796875 C 303.664062 323.296875 304.140625 322.769531 304.59375 322.21875 C 305.042969 321.667969 305.464844 321.09375 305.863281 320.503906 C 306.257812 319.910156 306.621094 319.300781 306.957031 318.671875 C 307.292969 318.042969 307.597656 317.398438 307.867188 316.742188 C 308.140625 316.082031 308.378906 315.414062 308.585938 314.730469 C 308.792969 314.050781 308.964844 313.359375 309.105469 312.660156 C 309.242188 311.964844 309.347656 311.257812 309.417969 310.550781 C 309.484375 309.839844 309.519531 309.128906 309.519531 308.417969 L 309.519531 59.832031 C 309.519531 59.121094 309.484375 58.410156 309.417969 57.699219 C 309.347656 56.992188 309.242188 56.285156 309.105469 55.589844 C 308.964844 54.890625 308.792969 54.199219 308.585938 53.519531 C 308.378906 52.835938 308.140625 52.167969 307.867188 51.507812 C 307.597656 50.851562 307.292969 50.207031 306.957031 49.578125 C 306.621094 48.949219 306.257812 48.339844 305.863281 47.746094 C 305.464844 47.15625 305.042969 46.582031 304.59375 46.03125 C 304.140625 45.480469 303.664062 44.953125 303.160156 44.453125 C 302.660156 43.949219 302.132812 43.46875 301.582031 43.019531 C 301.03125 42.566406 300.460938 42.140625 299.871094 41.746094 C 299.28125 41.351562 298.671875 40.984375 298.042969 40.648438 C 297.414062 40.3125 296.773438 40.007812 296.117188 39.734375 C 295.460938 39.464844 294.792969 39.222656 294.109375 39.015625 C 293.429688 38.808594 292.742188 38.636719 292.042969 38.5 C 291.347656 38.359375 290.644531 38.253906 289.9375 38.183594 C 289.226562 38.117188 288.519531 38.082031 287.808594 38.082031 L 116.671875 38.082031 C 115.960938 38.082031 115.253906 38.117188 114.542969 38.183594 C 113.835938 38.253906 113.132812 38.359375 112.4375 38.5 C 111.738281 38.636719 111.050781 38.808594 110.371094 39.015625 C 109.6875 39.222656 109.019531 39.464844 108.363281 39.734375 C 107.707031 40.007812 107.0625 40.3125 106.4375 40.648438 C 105.808594 40.984375 105.199219 41.351562 104.609375 41.746094 C 104.019531 42.140625 103.449219 42.566406 102.898438 43.019531 C 102.347656 43.46875 101.820312 43.949219 101.320312 44.453125 C 100.816406 44.953125 100.339844 45.480469 99.886719 46.03125 C 99.4375 46.582031 99.011719 47.15625 98.617188 47.746094 C 98.222656 48.339844 97.859375 48.949219 97.523438 49.578125 C 97.1875 50.207031 96.882812 50.851562 96.613281 51.507812 C 96.339844 52.167969 96.101562 52.835938 95.894531 53.519531 C 95.6875 54.199219 95.515625 54.890625 95.375 55.589844 C 95.238281 56.285156 95.132812 56.992188 95.0625 57.699219 C 94.992188 58.410156 94.960938 59.121094 94.960938 59.832031 L 94.960938 308.417969 C 94.960938 309.128906 94.992188 309.839844 95.0625 310.550781 C 95.132812 311.257812 95.238281 311.964844 95.375 312.660156 C 95.515625 313.359375 95.6875 314.050781 95.894531 314.730469 C 96.101562 315.414062 96.339844 316.082031 96.613281 316.742188 C 96.882812 317.398438 97.1875 318.042969 97.523438 318.671875 C 97.859375 319.300781 98.222656 319.910156 98.617188 320.503906 C 99.011719 321.09375 99.4375 321.667969 99.886719 322.21875 C 100.339844 322.769531 100.816406 323.296875 101.320312 323.796875 C 101.820312 324.300781 102.347656 324.78125 102.898438 325.230469 C 103.449219 325.683594 104.019531 326.109375 104.609375 326.503906 C 105.199219 326.898438 105.808594 327.265625 106.4375 327.601562 C 107.0625 327.9375 107.707031 328.242188 108.363281 328.515625 C 109.019531 328.785156 109.6875 329.027344 110.371094 329.234375 C 111.050781 329.441406 111.738281 329.613281 112.4375 329.75 C 113.132812 329.890625 113.835938 329.996094 114.542969 330.066406 C 115.253906 330.132812 115.960938 330.167969 116.671875 330.167969 Z M 107.367188 59.832031 C 107.367188 59.21875 107.425781 58.613281 107.546875 58.011719 C 107.664062 57.414062 107.839844 56.828125 108.074219 56.265625 C 108.308594 55.699219 108.59375 55.160156 108.933594 54.652344 C 109.273438 54.144531 109.660156 53.671875 110.09375 53.238281 C 110.523438 52.808594 110.996094 52.421875 111.503906 52.082031 C 112.011719 51.742188 112.546875 51.453125 113.113281 51.21875 C 113.675781 50.984375 114.257812 50.808594 114.855469 50.6875 C 115.457031 50.570312 116.0625 50.511719 116.671875 50.511719 L 287.808594 50.511719 C 288.417969 50.511719 289.023438 50.570312 289.621094 50.6875 C 290.222656 50.808594 290.804688 50.984375 291.367188 51.21875 C 291.933594 51.453125 292.46875 51.742188 292.976562 52.082031 C 293.484375 52.421875 293.957031 52.808594 294.386719 53.238281 C 294.820312 53.671875 295.207031 54.144531 295.542969 54.652344 C 295.882812 55.160156 296.171875 55.699219 296.40625 56.265625 C 296.640625 56.828125 296.816406 57.414062 296.933594 58.011719 C 297.054688 58.613281 297.113281 59.21875 297.113281 59.832031 L 297.113281 308.417969 C 297.113281 309.03125 297.054688 309.636719 296.933594 310.238281 C 296.816406 310.835938 296.640625 311.421875 296.40625 311.984375 C 296.171875 312.550781 295.882812 313.089844 295.542969 313.597656 C 295.207031 314.105469 294.820312 314.578125 294.386719 315.011719 C 293.957031 315.441406 293.484375 315.828125 292.976562 316.167969 C 292.46875 316.507812 291.933594 316.796875 291.367188 317.03125 C 290.804688 317.265625 290.222656 317.441406 289.621094 317.5625 C 289.023438 317.679688 288.417969 317.738281 287.808594 317.738281 L 116.671875 317.738281 C 116.0625 317.738281 115.457031 317.679688 114.855469 317.5625 C 114.257812 317.441406 113.675781 317.265625 113.113281 317.03125 C 112.546875 316.796875 112.011719 316.507812 111.503906 316.167969 C 110.996094 315.828125 110.523438 315.441406 110.09375 315.011719 C 109.660156 314.578125 109.273438 314.105469 108.933594 313.597656 C 108.59375 313.089844 108.308594 312.550781 108.074219 311.984375 C 107.839844 311.421875 107.664062 310.835938 107.546875 310.238281 C 107.425781 309.636719 107.367188 309.03125 107.367188 308.417969 Z M 107.367188 59.832031 " fill-opacity="1" fill-rule="nonzero"/></g><path fill="#7c75a2" d="M 274.871094 65.875 L 129.5625 65.875 L 129.5625 122.414062 L 274.871094 122.414062 Z M 262.464844 109.984375 L 141.96875 109.984375 L 141.96875 78.304688 L 262.464844 78.304688 Z M 262.464844 109.984375 " fill-opacity="1" fill-rule="nonzero"/><path fill="#7c75a2" d="M 181.457031 182.121094 L 223.007812 182.121094 L 223.007812 140.5 L 181.457031 140.5 Z M 193.863281 152.925781 L 210.601562 152.925781 L 210.601562 169.691406 L 193.863281 169.691406 Z M 193.863281 152.925781 " fill-opacity="1" fill-rule="nonzero"/><path fill="#7c75a2" d="M 171.113281 140.5 L 129.5625 140.5 L 129.5625 182.121094 L 171.113281 182.121094 Z M 158.703125 169.691406 L 141.96875 169.691406 L 141.96875 152.925781 L 158.703125 152.925781 Z M 158.703125 169.691406 " fill-opacity="1" fill-rule="nonzero"/><path fill="#7c75a2" d="M 233.367188 182.121094 L 274.871094 182.121094 L 274.871094 140.5 L 233.367188 140.5 Z M 245.777344 152.925781 L 262.464844 152.925781 L 262.464844 169.691406 L 245.777344 169.691406 Z M 245.777344 152.925781 " fill-opacity="1" fill-rule="nonzero"/><path fill="#7c75a2" d="M 181.457031 233.84375 L 223.007812 233.84375 L 223.007812 192.28125 L 181.457031 192.28125 Z M 193.863281 204.648438 L 210.601562 204.648438 L 210.601562 221.414062 L 193.863281 221.414062 Z M 193.863281 204.648438 " fill-opacity="1" fill-rule="nonzero"/><path fill="#7c75a2" d="M 171.113281 192.28125 L 129.5625 192.28125 L 129.5625 233.84375 L 171.113281 233.84375 Z M 158.703125 221.414062 L 141.96875 221.414062 L 141.96875 204.710938 L 158.703125 204.710938 Z M 158.703125 221.414062 " fill-opacity="1" fill-rule="nonzero"/><path fill="#7c75a2" d="M 233.367188 233.84375 L 274.871094 233.84375 L 274.871094 192.28125 L 233.367188 192.28125 Z M 245.777344 204.648438 L 262.464844 204.648438 L 262.464844 221.414062 L 245.777344 221.414062 Z M 245.777344 204.648438 " fill-opacity="1" fill-rule="nonzero"/><path fill="#7c75a2" d="M 181.457031 285.6875 L 223.007812 285.6875 L 223.007812 244.066406 L 181.457031 244.066406 Z M 193.863281 256.496094 L 210.601562 256.496094 L 210.601562 273.257812 L 193.863281 273.257812 Z M 193.863281 256.496094 " fill-opacity="1" fill-rule="nonzero"/><path fill="#7c75a2" d="M 171.113281 244.066406 L 129.5625 244.066406 L 129.5625 285.6875 L 171.113281 285.6875 Z M 158.703125 273.257812 L 141.96875 273.257812 L 141.96875 256.496094 L 158.703125 256.496094 Z M 158.703125 273.257812 " fill-opacity="1" fill-rule="nonzero"/><path fill="#7c75a2" d="M 233.367188 285.6875 L 274.871094 285.6875 L 274.871094 244.066406 L 233.367188 244.066406 Z M 245.777344 256.496094 L 262.464844 256.496094 L 262.464844 273.257812 L 245.777344 273.257812 Z M 245.777344 256.496094 " fill-opacity="1" fill-rule="nonzero"/></svg>