<svg xmlns="http://www.w3.org/2000/svg" xmlns:xlink="http://www.w3.org/1999/xlink" width="500" zoomAndPan="magnify" viewBox="0 0 375 374.999991" height="500" preserveAspectRatio="xMidYMid meet" version="1.0"><defs><clipPath id="id1"><path d="M 85.464844 59.171875 L 284.214844 59.171875 L 284.214844 316.421875 L 85.464844 316.421875 Z M 85.464844 59.171875 " clip-rule="nonzero"/></clipPath></defs><g clip-path="url(#id1)"><path fill="#7c75a2" d="M 284.21875 296.359375 L 284.21875 79.257812 C 284.21875 73.734375 281.960938 68.707031 278.320312 65.070312 C 274.683594 61.429688 269.660156 59.171875 264.132812 59.171875 L 105.574219 59.171875 C 100.046875 59.171875 95.023438 61.429688 91.382812 65.070312 C 87.746094 68.707031 85.484375 73.734375 85.484375 79.257812 L 85.484375 296.359375 C 85.484375 301.890625 87.746094 306.914062 91.382812 310.554688 C 95.023438 314.191406 100.046875 316.449219 105.574219 316.449219 L 264.132812 316.449219 C 269.660156 316.449219 274.683594 314.191406 278.320312 310.554688 C 281.960938 306.914062 284.21875 301.890625 284.21875 296.359375 Z M 114.863281 160.507812 L 135.039062 160.507812 C 138.503906 160.507812 141.652344 161.742188 143.933594 163.71875 C 146.214844 165.703125 147.628906 168.4375 147.628906 171.449219 L 147.628906 187.585938 C 147.628906 190.601562 146.214844 193.335938 143.933594 195.316406 C 141.652344 197.296875 138.503906 198.527344 135.039062 198.527344 L 114.863281 198.527344 C 111.394531 198.527344 108.246094 197.296875 105.964844 195.316406 C 103.6875 193.335938 102.269531 190.601562 102.269531 187.585938 L 102.269531 171.449219 C 102.269531 168.4375 103.6875 165.703125 105.964844 163.71875 C 108.246094 161.742188 111.394531 160.507812 114.863281 160.507812 Z M 173.054688 160.507812 L 193.230469 160.507812 C 196.699219 160.507812 199.847656 161.742188 202.125 163.71875 C 204.40625 165.703125 205.824219 168.4375 205.824219 171.449219 L 205.824219 187.585938 C 205.824219 190.601562 204.40625 193.335938 202.125 195.316406 C 199.847656 197.296875 196.699219 198.527344 193.230469 198.527344 L 173.054688 198.527344 C 169.585938 198.527344 166.4375 197.296875 164.160156 195.316406 C 161.878906 193.335938 160.464844 190.601562 160.464844 187.585938 L 160.464844 171.449219 C 160.464844 168.4375 161.878906 165.703125 164.160156 163.71875 C 166.4375 161.742188 169.585938 160.507812 173.054688 160.507812 Z M 231.25 160.507812 L 251.425781 160.507812 C 254.890625 160.507812 258.039062 161.742188 260.320312 163.71875 C 262.601562 165.703125 264.015625 168.4375 264.015625 171.449219 L 264.015625 187.585938 C 264.015625 190.601562 262.601562 193.335938 260.320312 195.316406 C 258.039062 197.296875 254.890625 198.527344 251.425781 198.527344 L 231.25 198.527344 C 227.78125 198.527344 224.632812 197.296875 222.351562 195.316406 C 220.074219 193.335938 218.65625 190.601562 218.65625 187.585938 L 218.65625 171.449219 C 218.65625 168.4375 220.074219 165.703125 222.351562 163.71875 C 224.632812 161.742188 227.78125 160.507812 231.25 160.507812 Z M 114.863281 210.492188 L 135.039062 210.492188 C 138.503906 210.492188 141.652344 211.71875 143.933594 213.703125 C 146.214844 215.683594 147.628906 218.417969 147.628906 221.429688 L 147.628906 237.566406 C 147.628906 240.578125 146.214844 243.316406 143.933594 245.296875 C 141.652344 247.277344 138.503906 248.507812 135.039062 248.507812 L 114.863281 248.507812 C 111.394531 248.507812 108.246094 247.277344 105.964844 245.296875 C 103.6875 243.316406 102.269531 240.578125 102.269531 237.566406 L 102.269531 221.429688 C 102.269531 218.417969 103.6875 215.683594 105.964844 213.703125 C 108.246094 211.71875 111.394531 210.492188 114.863281 210.492188 Z M 173.054688 210.492188 L 193.230469 210.492188 C 196.699219 210.492188 199.847656 211.71875 202.125 213.703125 C 204.40625 215.683594 205.824219 218.417969 205.824219 221.429688 L 205.824219 237.566406 C 205.824219 240.578125 204.40625 243.316406 202.125 245.296875 C 199.847656 247.277344 196.699219 248.507812 193.230469 248.507812 L 173.054688 248.507812 C 169.585938 248.507812 166.4375 247.277344 164.160156 245.296875 C 161.878906 243.316406 160.464844 240.578125 160.464844 237.566406 L 160.464844 221.429688 C 160.464844 218.417969 161.878906 215.683594 164.160156 213.703125 C 166.4375 211.71875 169.585938 210.492188 173.054688 210.492188 Z M 231.25 210.492188 L 251.425781 210.492188 C 254.890625 210.492188 258.039062 211.71875 260.320312 213.703125 C 262.601562 215.683594 264.015625 218.417969 264.015625 221.429688 L 264.015625 287.550781 C 264.015625 290.5625 262.601562 293.300781 260.320312 295.277344 C 258.039062 297.261719 254.890625 298.488281 251.425781 298.488281 L 231.25 298.488281 C 227.78125 298.488281 224.632812 297.261719 222.351562 295.277344 C 220.074219 293.300781 218.65625 290.5625 218.65625 287.550781 L 218.65625 221.429688 C 218.65625 218.417969 220.074219 215.683594 222.351562 213.703125 C 224.632812 211.71875 227.78125 210.492188 231.25 210.492188 Z M 114.863281 260.472656 L 135.039062 260.472656 C 138.503906 260.472656 141.652344 261.703125 143.933594 263.683594 C 146.214844 265.664062 147.628906 268.402344 147.628906 271.414062 L 147.628906 287.550781 C 147.628906 290.5625 146.214844 293.300781 143.933594 295.277344 C 141.652344 297.261719 138.503906 298.488281 135.039062 298.488281 L 114.863281 298.488281 C 111.394531 298.488281 108.246094 297.261719 105.964844 295.277344 C 103.6875 293.300781 102.269531 290.5625 102.269531 287.550781 L 102.269531 271.414062 C 102.269531 268.402344 103.6875 265.664062 105.964844 263.683594 C 108.246094 261.703125 111.394531 260.472656 114.863281 260.472656 Z M 173.054688 260.472656 L 193.230469 260.472656 C 196.699219 260.472656 199.847656 261.703125 202.125 263.683594 C 204.40625 265.664062 205.824219 268.402344 205.824219 271.414062 L 205.824219 287.550781 C 205.824219 290.5625 204.40625 293.300781 202.125 295.277344 C 199.847656 297.261719 196.699219 298.488281 193.230469 298.488281 L 173.054688 298.488281 C 169.585938 298.488281 166.4375 297.261719 164.160156 295.277344 C 161.878906 293.300781 160.464844 290.5625 160.464844 287.550781 L 160.464844 271.414062 C 160.464844 268.402344 161.878906 265.664062 164.160156 263.683594 C 166.4375 261.703125 169.585938 260.472656 173.054688 260.472656 Z M 264.492188 131.558594 C 264.492188 134.0625 263.390625 136.34375 261.621094 138 C 259.851562 139.65625 257.414062 140.683594 254.738281 140.683594 L 114.96875 140.683594 C 112.292969 140.683594 109.855469 139.65625 108.085938 138 C 106.316406 136.34375 105.21875 134.0625 105.21875 131.558594 L 105.21875 91.433594 C 105.21875 88.929688 106.316406 86.648438 108.085938 84.992188 C 109.855469 83.335938 112.292969 82.304688 114.96875 82.304688 L 254.738281 82.304688 C 257.414062 82.304688 259.851562 83.335938 261.621094 84.992188 C 263.390625 86.648438 264.492188 88.929688 264.492188 91.433594 L 264.492188 131.558594 " fill-opacity="1" fill-rule="evenodd"/></g></svg>